<svg width="30" height="24" viewBox="0 0 30 24" fill="none" xmlns="http://www.w3.org/2000/svg">
<path d="M29.3986 2.92249C28.2978 3.41015 27.1302 3.73026 25.9346 3.87215C27.1799 3.12574 28.1361 1.94377 28.5864 0.535463C27.4025 1.23799 26.1073 1.73297 24.7566 1.999C23.6564 0.826908 22.089 0.0943909 20.3543 0.0943909C17.0234 0.0943909 14.3229 2.79479 14.3229 6.1254C14.3229 6.59816 14.3763 7.05841 14.4791 7.49994C9.46665 7.24834 5.02263 4.84731 2.0479 1.19839C1.52885 2.08915 1.23144 3.12528 1.23144 4.23043C1.23144 6.32291 2.29628 8.16884 3.9145 9.25045C2.95674 9.22045 2.02005 8.96177 1.18263 8.496C1.18229 8.52126 1.18229 8.54652 1.18229 8.5719C1.18229 11.494 3.26122 13.9317 6.02018 14.4858C5.13205 14.7273 4.20046 14.7627 3.29658 14.5891C4.06401 16.9852 6.29142 18.7288 8.9305 18.7776C6.86638 20.3952 4.26577 21.3594 1.4402 21.3594C0.953312 21.3594 0.473312 21.3308 0.00146484 21.2751C2.67052 22.9864 5.8407 23.9848 9.24663 23.9848C20.3403 23.9848 26.4065 14.7947 26.4065 6.82484C26.4065 6.56325 26.4008 6.30316 26.3891 6.04455C27.5698 5.19099 28.5889 4.13376 29.3986 2.92249" fill="#38A1F3"/>
</svg>
